<svg width="53" height="53" viewBox="0 0 53 53" fill="none" xmlns="http://www.w3.org/2000/svg">
<circle cx="26.5" cy="26.5" r="26.5" fill="#0C6EFD"/>
<path fill-rule="evenodd" clip-rule="evenodd" d="M46.3612 44.0443C50.4926 39.3708 53 33.2282 53 26.5C53 11.8645 41.1355 0 26.5 0C11.8645 0 0 11.8645 0 26.5C0 33.2282 2.50744 39.3708 6.63884 44.0443C6.94122 37.4137 12.1606 32.1313 18.55 32.1313H20.0318C22.0104 33.0815 24.1931 33.6219 26.5 33.6219C28.8069 33.6219 30.9985 33.0815 32.9682 32.1313H34.45C40.8394 32.1313 46.0588 37.4137 46.3612 44.0443ZM37.8571 17.225C37.8571 23.8117 32.773 29.15 26.5 29.15C20.227 29.15 15.1429 23.8117 15.1429 17.225C15.1429 10.6383 20.227 5.3 26.5 5.3C32.773 5.3 37.8571 10.6383 37.8571 17.225Z" fill="#100D37"/>
</svg>
