<svg width="240" height="240" viewBox="0 0 240 240" fill="none" xmlns="http://www.w3.org/2000/svg">
<path d="M59.9999 45C59.9999 37.0435 63.1606 29.4129 68.7867 23.7868C74.4128 18.1607 82.0434 15 89.9999 15H143.79C149.755 15.0053 155.474 17.3792 159.69 21.6L203.415 65.31C207.63 69.528 209.999 75.2468 210 81.21V195C210 202.956 206.839 210.587 201.213 216.213C195.587 221.839 187.956 225 180 225H129.945C135.988 220.743 141.436 215.698 146.145 210H180C183.978 210 187.793 208.42 190.607 205.607C193.42 202.794 195 198.978 195 195V90H157.5C151.533 90 145.81 87.6295 141.59 83.4099C137.37 79.1903 135 73.4674 135 67.5V30H89.9999C86.0217 30 82.2064 31.5804 79.3933 34.3934C76.5803 37.2064 74.9999 41.0218 74.9999 45V75.33C69.9247 75.788 64.9031 76.717 59.9999 78.105V45ZM157.5 75H191.895L150 33.105V67.5C150 69.4891 150.79 71.3968 152.197 72.8033C153.603 74.2098 155.511 75 157.5 75ZM34.7699 109.77C22.1111 122.429 14.9995 139.598 14.9995 157.5C14.9995 175.402 22.1111 192.571 34.7699 205.23C47.4287 217.889 64.5977 225 82.4999 225C100.402 225 117.571 217.889 130.23 205.23C142.889 192.571 150 175.402 150 157.5C150 139.598 142.889 122.429 130.23 109.77C117.571 97.1112 100.402 89.9996 82.4999 89.9996C64.5977 89.9996 47.4287 97.1112 34.7699 109.77V109.77ZM109.02 184.02C107.613 185.426 105.706 186.216 103.717 186.216C101.729 186.216 99.8214 185.426 98.4149 184.02L82.4999 168.12L66.5999 184.02C65.1936 185.428 63.2855 186.22 61.2952 186.222C59.305 186.223 57.3957 185.434 55.9874 184.028C54.5791 182.621 53.7872 180.713 53.7858 178.723C53.7843 176.733 54.5736 174.823 55.9799 173.415L71.8799 157.5L55.9799 141.6C54.5716 140.194 53.7797 138.286 53.7783 136.295C53.7776 135.31 53.971 134.334 54.3474 133.423C54.7239 132.512 55.2761 131.685 55.9724 130.988C56.6688 130.29 57.4956 129.737 58.4058 129.359C59.316 128.981 60.2917 128.787 61.2771 128.786C63.2674 128.784 65.1766 129.574 66.5849 130.98L82.4999 146.88L98.3999 130.98C99.8062 129.572 101.714 128.78 103.705 128.778C105.695 128.777 107.604 129.566 109.012 130.972C110.421 132.379 111.213 134.287 111.214 136.277C111.216 138.267 110.426 140.177 109.02 141.585L93.1199 157.5L109.02 173.4C109.718 174.097 110.273 174.924 110.651 175.835C111.029 176.747 111.223 177.723 111.223 178.71C111.223 179.697 111.029 180.673 110.651 181.585C110.273 182.496 109.718 183.323 109.02 184.02Z" fill="#0C6EFD"/>
</svg>
