<svg width="756" height="982" viewBox="0 0 756 982" fill="none" xmlns="http://www.w3.org/2000/svg">
<rect width="756" height="982" fill="#100D37"/>
<path d="M0 982C0 917.383 52.3827 865 117 865V982H0Z" fill="#005198"/>
<path d="M0 135H117V252C52.3827 252 0 199.617 0 135Z" fill="#005198"/>
<path d="M350.256 251.256L233.256 251.256L233.256 134.256C297.874 134.256 350.256 186.639 350.256 251.256Z" fill="#005198"/>
<path d="M415 430C415 349.366 480.366 284 561 284V430H415Z" fill="#005198"/>
<path d="M117 252H234C234 316.617 181.617 369 117 369V252Z" fill="#3D69B2"/>
<path d="M518 779H635C635 843.617 582.617 896 518 896V779Z" fill="#3D69B2"/>
<path d="M561 284H708C708 364.634 641.634 430 561 430V284Z" fill="#0285C6"/>
<path d="M0 252H117V369C52.3827 369 0 316.617 0 252Z" fill="#648BCD"/>
<path d="M401 779H518V896C453.383 896 401 843.617 401 779Z" fill="#648BCD"/>
<path d="M584 0H756V172C661.007 172 584 94.993 584 0Z" fill="#0285C6"/>
<circle cx="516.5" cy="702.5" r="60.5" fill="#005198"/>
<rect width="756" height="982" fill="#100D37" fill-opacity="0.49"/>
</svg>
