<svg width="240" height="240" viewBox="0 0 240 240" fill="none" xmlns="http://www.w3.org/2000/svg">
<path d="M225 25.605L214.395 15L15 214.395L25.605 225L40.605 210H195C198.976 209.994 202.788 208.412 205.6 205.6C208.412 202.788 209.994 198.976 210 195V40.605L225 25.605ZM195 195H55.605L114.052 136.553L131.895 154.395C134.708 157.207 138.523 158.787 142.5 158.787C146.477 158.787 150.292 157.207 153.105 154.395L165 142.5L195 172.477V195ZM195 151.26L175.605 131.865C172.792 129.053 168.977 127.473 165 127.473C161.023 127.473 157.208 129.053 154.395 131.865L142.5 143.76L124.672 125.933L195 55.605V151.26ZM45 165V142.5L82.5 105.023L92.7975 115.327L103.417 104.708L93.105 94.395C90.2921 91.5829 86.4775 90.0032 82.5 90.0032C78.5225 90.0032 74.7079 91.5829 71.895 94.395L45 121.29V45H165V30H45C41.023 30.004 37.21 31.5856 34.3978 34.3978C31.5856 37.21 30.004 41.023 30 45V165H45Z" fill="#0C6EFD"/>
</svg>
