<svg width="88" height="88" viewBox="0 0 88 88" fill="none" xmlns="http://www.w3.org/2000/svg">
<rect width="88" height="88" rx="16" fill="#0C6EFD"/>
<path d="M36.8 44C42.1025 44 46.4 39.7465 46.4 34.5C46.4 29.2535 42.1025 25 36.8 25C31.4975 25 27.2 29.2535 27.2 34.5C27.2 39.7465 31.4975 44 36.8 44ZM40.6025 47.5625H32.9975C25.8178 47.5625 20 53.3219 20 60.4246C20 61.8496 21.164 63 22.5995 63H50.9975C52.4375 63 53.6 61.8496 53.6 60.4246C53.6 53.3219 47.78 47.5625 40.6025 47.5625ZM55.9325 48.75H50.3938C53.84 51.548 56 55.734 56 60.4246C56 61.3746 55.715 62.2504 55.25 63H65.6C66.9275 63 68 61.9313 68 60.5582C68 54.0641 62.63 48.75 55.9325 48.75ZM52.4 44C57.0425 44 60.8 40.2816 60.8 35.6875C60.8 31.0934 57.0425 27.375 52.4 27.375C50.5168 27.375 48.797 28.0099 47.396 29.0457C48.26 30.6874 48.8 32.5258 48.8 34.5C48.8 37.1363 47.9053 39.5573 46.4308 41.5293C47.9525 43.05 50.06 44 52.4 44Z" fill="white"/>
</svg>
