<svg width="24" height="24" viewBox="0 0 24 24" fill="none" xmlns="http://www.w3.org/2000/svg">
<rect x="1" y="1" width="22" height="22" rx="5" stroke="white" stroke-width="2"/>
<mask id="path-2-inside-1_135_96" fill="white">
<path fill-rule="evenodd" clip-rule="evenodd" d="M19.9825 20C19.9941 19.8554 20 19.7095 20 19.5625C20 15.9381 16.4183 13 12 13C7.58172 13 4 15.9381 4 19.5625C4 19.7095 4.00589 19.8554 4.0175 20H19.9825Z"/>
</mask>
<path d="M19.9825 20V22H21.8285L21.9761 20.16L19.9825 20ZM4.0175 20L2.0239 20.16L2.17154 22H4.0175V20ZM18 19.5625C18 19.656 17.9963 19.7485 17.9889 19.84L21.9761 20.16C21.992 19.9622 22 19.763 22 19.5625H18ZM12 15C15.7024 15 18 17.3949 18 19.5625H22C22 14.4813 17.1341 11 12 11V15ZM6 19.5625C6 17.3949 8.29758 15 12 15V11C6.86586 11 2 14.4813 2 19.5625H6ZM6.01109 19.84C6.00375 19.7485 6 19.656 6 19.5625H2C2 19.763 2.00804 19.9622 2.0239 20.16L6.01109 19.84ZM4.0175 22H19.9825V18H4.0175V22Z" fill="white" mask="url(#path-2-inside-1_135_96)"/>
<circle cx="12" cy="8" r="3" stroke="white" stroke-width="2"/>
</svg>
