<svg width="88" height="88" viewBox="0 0 88 88" fill="none" xmlns="http://www.w3.org/2000/svg">
<rect width="88" height="88" rx="16" fill="#0C6EFD"/>
<rect x="15" y="31" width="15" height="22" fill="white"/>
<rect x="36" y="31" width="15" height="22" fill="white"/>
<rect x="57" y="20" width="15" height="22" fill="white"/>
<path fill-rule="evenodd" clip-rule="evenodd" d="M60.9276 51.3623C61.4839 50.8792 62.3859 50.8792 62.9422 51.3623L71.5828 58.864C72.1391 59.347 72.1391 60.1301 71.5828 60.6131C71.5621 60.6311 71.5409 60.6483 71.5194 60.6649C71.5164 60.6676 71.5133 60.6702 71.5103 60.6729L62.9423 68.1116C62.386 68.5946 61.484 68.5946 60.9277 68.1116C60.3713 67.6286 60.3713 66.8455 60.9277 66.3625L66.5425 61.4877H16.5C15.6716 61.4877 15 60.8162 15 59.9877C15 59.1593 15.6716 58.4877 16.5 58.4877H67.1201L60.9276 53.1114C60.3713 52.6284 60.3713 51.8453 60.9276 51.3623Z" fill="white"/>
</svg>
