<svg width="24" height="24" viewBox="0 0 24 24" fill="none" xmlns="http://www.w3.org/2000/svg">
<rect x="1" y="1" width="22" height="22" rx="5" stroke="white" stroke-width="2"/>
<path d="M11.2496 10.9115L9.9574 8.97315C12.025 7.93937 14.2648 8.54241 15.1263 8.97315L13.8341 10.9115H11.2496Z" stroke="white"/>
<path d="M16.3802 4.30436L12.542 7.66276L8.70386 4.30436L16.3802 4.30436Z" stroke="white"/>
<path d="M4.78849 6.38869L7.37294 3.80429L12.5418 8.32707C10.0489 8.54281 9.21166 9.26276 8.66531 11.5575L4.78849 6.38869Z" fill="white"/>
<path d="M17.7109 3.80425L20.2954 6.3887L16.4187 11.5576C15.9874 9.09271 14.8755 8.67222 12.542 8.32703L17.7109 3.80425Z" fill="white"/>
<path d="M9 20L11 11H14L16 20H9Z" stroke="white"/>
</svg>
