<svg width="24" height="24" viewBox="0 0 24 24" fill="none" xmlns="http://www.w3.org/2000/svg">
<path d="M13.5795 11.25H16.5443C16.9538 11.25 17.2853 11.586 17.2853 12C17.2853 12.414 16.9538 12.75 16.5443 12.75H12.8385C12.7406 12.7494 12.6438 12.7295 12.5536 12.6915C12.4633 12.6535 12.3815 12.5981 12.3127 12.5285C12.2439 12.4588 12.1895 12.3763 12.1525 12.2856C12.1156 12.195 12.0969 12.0979 12.0975 12V7.5C12.0975 7.086 12.429 6.75 12.8385 6.75C13.248 6.75 13.5795 7.086 13.5795 7.5V11.25V11.25ZM18.0795 6.69675C19.4744 8.10887 20.2546 10.0151 20.25 12C20.25 16.1422 16.932 19.5 12.8385 19.5V18C16.113 18 18.768 15.3135 18.768 12C18.7718 10.4119 18.1474 8.88674 17.031 7.75725C16.4839 7.20056 15.8314 6.75845 15.1116 6.45673C14.3918 6.15502 13.619 5.99975 12.8385 6C10.1805 6 7.93051 7.77 7.17826 10.209L8.19226 9.51675C8.27287 9.46172 8.36362 9.42327 8.45923 9.40366C8.55485 9.38404 8.65341 9.38364 8.74917 9.40249C8.84494 9.42134 8.936 9.45905 9.01705 9.51343C9.0981 9.56781 9.16752 9.63778 9.22126 9.71925C9.33127 9.8843 9.37193 10.086 9.33446 10.2808C9.29699 10.4756 9.1844 10.6478 9.02101 10.7603L6.56326 12.438C6.48265 12.493 6.3919 12.5315 6.29629 12.5511C6.20068 12.5707 6.10212 12.5711 6.00635 12.5523C5.91058 12.5334 5.81952 12.4957 5.73847 12.4413C5.65743 12.3869 5.58801 12.317 5.53426 12.2355L3.87751 9.7485C3.76727 9.58339 3.72647 9.38151 3.76395 9.18655C3.80142 8.99159 3.91416 8.81922 4.07776 8.70675C4.15837 8.65172 4.24912 8.61327 4.34473 8.59366C4.44035 8.57404 4.53891 8.57364 4.63467 8.59249C4.73044 8.61134 4.8215 8.64905 4.90255 8.70343C4.9836 8.75781 5.05302 8.82778 5.10676 8.90925L5.73601 9.8535C6.64726 6.7575 9.48226 4.5 12.8385 4.5C14.8853 4.5 16.7385 5.34 18.0795 6.69675V6.69675Z" fill="white"/>
<rect x="1" y="1" width="22" height="22" rx="5" stroke="white" stroke-width="2"/>
</svg>
