<svg width="88" height="88" viewBox="0 0 88 88" fill="none" xmlns="http://www.w3.org/2000/svg">
<rect width="88" height="88" rx="16" fill="#0C6EFD"/>
<g clip-path="url(#clip0_307_76)">
<path d="M61.697 35C61.002 31.5968 59.1474 28.5403 56.4499 26.3522C53.7523 24.1641 50.379 22.9799 46.9056 23.0019C43.4323 23.0238 40.0742 24.2505 37.4045 26.4726C34.7348 28.6946 32.919 31.7743 32.267 35.186C29.4986 35.6788 27.0152 37.191 25.3068 39.4244C23.5983 41.6579 22.7887 44.4504 23.0376 47.2513C23.2865 50.0523 24.5759 52.6583 26.6514 54.5554C28.727 56.4526 31.4381 57.5032 34.25 57.5H36.5V54.5H34.25C32.1089 54.5056 30.0495 53.6779 28.5078 52.192C26.9661 50.7062 26.0629 48.6788 25.9894 46.5389C25.916 44.399 26.6779 42.3145 28.1141 40.7264C29.5503 39.1383 31.548 38.1713 33.6845 38.03L34.94 37.9445L35.075 36.695C35.3789 33.9048 36.652 31.3096 38.6725 29.3615C40.6931 27.4135 43.3331 26.236 46.1326 26.0344C48.9321 25.8327 51.7136 26.6196 53.9925 28.2579C56.2715 29.8962 57.9034 32.2821 58.604 35H61.697Z" fill="white"/>
<path d="M57.5 54C53.5 57.6 41.8333 57.8333 36.5 57.5L26 52.5L25 45.5L28 38.5L33.5 35.5L36.5 31L41.5 26L52 25.5C54.1667 26 60.5 29 62 35C64.0073 43.0294 62.5 49.5 57.5 54Z" fill="white"/>
<path d="M60.4982 54L60.4999 56L60.491 54C59.4651 54.0046 58.4628 54.2533 57.5632 54.7165L54.7049 53.0012L57.5654 51.2857C58.4639 51.7476 59.4648 51.9955 60.4891 52C61.8358 52.0088 63.1523 51.6011 64.2583 50.8327C65.3652 50.0637 66.2071 48.9711 66.6686 47.7047C67.13 46.4384 67.1884 45.0603 66.8357 43.7594C66.483 42.4585 65.7364 41.2987 64.6985 40.4388C63.6606 39.579 62.382 39.0613 61.0383 38.9568C59.6945 38.8523 58.3513 39.166 57.1929 39.855C56.0345 40.544 55.1176 41.5745 54.568 42.8052C54.2205 43.5833 54.0306 44.4173 54.0036 45.2597L50.3635 47.4436C49.7383 47.0641 49.0503 46.7908 48.3269 46.6388C47.0612 46.373 45.745 46.4907 44.5466 46.977C43.3482 47.4633 42.3221 48.296 41.5996 49.3687C40.877 50.4413 40.4909 51.7051 40.4906 52.9985C40.4903 54.2918 40.8758 55.5558 41.5978 56.6288C42.3198 57.7018 43.3455 58.535 44.5437 59.0219C45.7419 59.5087 47.058 59.6271 48.3238 59.3618C49.0475 59.2101 49.7359 58.937 50.3613 58.5577L54.0117 60.7481C54.044 61.583 54.2372 62.4085 54.5858 63.1779C55.1375 64.3958 56.0515 65.4139 57.2032 66.0932C58.3549 66.7724 59.6881 67.0798 61.0209 66.9734C62.3537 66.867 63.6213 66.352 64.6506 65.4986C65.6799 64.6452 66.4209 63.495 66.7723 62.205C67.1238 60.9149 67.0688 59.5479 66.6146 58.2903C66.1605 57.0327 65.3294 55.9459 64.2348 55.1781C63.1401 54.4102 61.8353 53.9989 60.4982 54ZM60.4999 46C60.434 46 60.369 45.987 60.3086 45.962C60.2785 45.9495 60.2495 45.934 60.2222 45.9158C60.1673 45.8791 60.1205 45.8321 60.0842 45.7778C60.0661 45.7507 60.0506 45.7218 60.038 45.6914C60.0128 45.6304 59.9999 45.5654 59.9999 45.5C59.9999 45.4674 60.0031 45.4348 60.0096 45.4025C60.0288 45.3055 60.0765 45.2164 60.1464 45.1465C60.2163 45.0765 60.3054 45.0289 60.4024 45.0096C60.4347 45.0032 60.4673 45 60.4999 45C60.5653 45 60.6303 45.0128 60.6913 45.0381C60.7217 45.0507 60.7506 45.0662 60.7777 45.0843C60.8321 45.1206 60.879 45.1674 60.9157 45.2222C60.934 45.2496 60.9494 45.2786 60.9619 45.3087C60.9869 45.3691 60.9999 45.434 60.9999 45.5C60.9999 45.533 60.9967 45.5657 60.9903 45.5976C60.9712 45.6939 60.9239 45.7831 60.8535 45.8536C60.7831 45.924 60.6938 45.9713 60.5975 45.9904C60.5656 45.9968 60.5329 46 60.4999 46ZM46.9999 52.5C47.0659 52.5 47.1309 52.5131 47.1913 52.5381C47.2214 52.5506 47.2504 52.566 47.2777 52.5843C47.3326 52.6209 47.3794 52.6679 47.4157 52.7222C47.4338 52.7493 47.4493 52.7783 47.4619 52.8087C47.4871 52.8696 47.4999 52.9347 47.4999 53C47.4999 53.0326 47.4968 53.0653 47.4903 53.0976C47.471 53.1946 47.4234 53.2836 47.3535 53.3536C47.2836 53.4235 47.1945 53.4711 47.0975 53.4904C47.0652 53.4968 47.0325 53.5 46.9999 53.5C46.9346 53.5 46.8696 53.4872 46.8086 53.462C46.7782 53.4494 46.7493 53.4339 46.7222 53.4158C46.6678 53.3795 46.6209 53.3327 46.5842 53.2778C46.5659 53.2504 46.5505 53.2215 46.538 53.1914C46.513 53.131 46.4999 53.066 46.4999 53C46.4999 52.967 46.5032 52.9344 46.5095 52.9025C46.5287 52.8062 46.576 52.7169 46.6464 52.6465C46.7168 52.576 46.8061 52.5288 46.9024 52.5096C46.9343 52.5033 46.9669 52.5 46.9999 52.5ZM60.4999 60C60.5659 60 60.6309 60.0131 60.6913 60.0381C60.7214 60.0506 60.7504 60.066 60.7777 60.0843C60.8326 60.1209 60.8794 60.1679 60.9157 60.2222C60.9338 60.2493 60.9493 60.2783 60.9619 60.3087C60.9871 60.3696 60.9999 60.4347 60.9999 60.5C60.9999 60.5326 60.9968 60.5653 60.9903 60.5976C60.971 60.6946 60.9234 60.7836 60.8535 60.8536C60.7836 60.9235 60.6945 60.9711 60.5975 60.9904C60.5652 60.9968 60.5325 61 60.4999 61C60.4346 61 60.3696 60.9872 60.3086 60.962C60.2782 60.9494 60.2493 60.9339 60.2222 60.9158C60.1678 60.8795 60.1209 60.8327 60.0842 60.7778C60.0659 60.7504 60.0505 60.7215 60.038 60.6914C60.013 60.631 59.9999 60.566 59.9999 60.5C59.9999 60.467 60.0032 60.4344 60.0095 60.4025C60.0287 60.3062 60.076 60.2169 60.1464 60.1465C60.2168 60.076 60.3061 60.0288 60.4024 60.0096C60.4343 60.0033 60.4669 60 60.4999 60Z" fill="white" stroke="#0C6EFD" stroke-width="4"/>
<circle cx="47" cy="53" r="3" fill="white"/>
<circle cx="47" cy="53" r="3" fill="white"/>
<circle cx="47" cy="53" r="3" fill="white"/>
<circle cx="47" cy="53" r="3" fill="white"/>
<circle cx="61" cy="60" r="3" fill="white"/>
<circle cx="61" cy="60" r="3" fill="white"/>
<circle cx="61" cy="60" r="3" fill="white"/>
<circle cx="61" cy="60" r="3" fill="white"/>
<circle cx="60" cy="46" r="3" fill="white"/>
<circle cx="60" cy="46" r="3" fill="white"/>
<circle cx="60" cy="46" r="3" fill="white"/>
<circle cx="60" cy="46" r="3" fill="white"/>
</g>
<defs>
<clipPath id="clip0_307_76">
<rect width="48" height="48" fill="white" transform="translate(20 20)"/>
</clipPath>
</defs>
</svg>
