<svg width="26" height="30" viewBox="0 0 26 30" fill="none" xmlns="http://www.w3.org/2000/svg">
<path d="M19.6667 21.8503L25 14.9002M25 14.9002L19.6667 7.9501M25 14.9002H6.33333M14.3333 21.8503V23.5878C14.3333 24.9703 13.9119 26.2961 13.1618 27.2737C12.4116 28.2512 11.3942 28.8004 10.3333 28.8004H5C3.93913 28.8004 2.92172 28.2512 2.17157 27.2737C1.42143 26.2961 1 24.9703 1 23.5878V6.21258C1 4.83012 1.42143 3.50428 2.17157 2.52673C2.92172 1.54918 3.93913 1 5 1H10.3333C11.3942 1 12.4116 1.54918 13.1618 2.52673C13.9119 3.50428 14.3333 4.83012 14.3333 6.21258V7.9501" stroke="white" stroke-width="2" stroke-linecap="round" stroke-linejoin="round"/>
</svg>
