<svg width="88" height="88" viewBox="0 0 88 88" fill="none" xmlns="http://www.w3.org/2000/svg">
<rect width="88" height="88" rx="16" fill="#0C6EFD"/>
<path d="M55.8519 27.9507C51.3966 28.0733 47.9433 29.2824 44.5812 30.4517C40.9854 31.7005 37.5918 32.8781 32.8897 32.9261C29.7478 32.9758 26.6009 32.4325 23.5087 31.3626L21.3125 30.604V58.8961L22.4156 59.2886C25.2958 60.3072 28.2406 60.8952 31.1722 61.0343C31.6376 61.0559 32.093 61.0675 32.5402 61.0675C37.5305 61.0675 41.3515 59.7425 45.0565 58.4638C48.9619 57.1123 52.6454 55.8354 57.6722 56.0722C60.3366 56.2091 62.9665 56.7358 65.4781 57.6357L67.6875 58.4175V30.1138L66.5977 29.7163C63.7794 28.6899 60.8209 28.1001 57.8245 27.9673C57.1674 27.9381 56.5095 27.9326 55.8519 27.9507ZM55.9414 31.24C56.5045 31.2235 57.0809 31.2235 57.6788 31.2467C58.2982 31.2732 58.9177 31.3295 59.5354 31.4024C59.7874 32.4416 60.4324 33.3426 61.3349 33.9162C62.2374 34.4898 63.3271 34.6911 64.375 34.478V49.5532C63.8324 49.4428 63.2732 49.4425 62.7305 49.5524C62.1879 49.6623 61.6728 49.8802 61.216 50.193C60.7592 50.5059 60.3699 50.9074 60.0712 51.3736C59.7726 51.8398 59.5706 52.3613 59.4775 52.9071C58.9289 52.8507 58.3788 52.8098 57.8278 52.7845C52.1718 52.5361 48.0013 53.9588 43.97 55.3567C40.0596 56.7115 36.3546 57.9918 31.3312 57.7533C30.7055 57.7206 30.0813 57.6653 29.4596 57.5877C29.2055 56.5513 28.5603 55.6535 27.6591 55.082C26.758 54.5106 25.6708 54.3099 24.625 54.522V39.4468C25.1708 39.5578 25.7335 39.5573 26.2791 39.4453C26.8247 39.3332 27.342 39.1119 27.7998 38.7947C28.2577 38.4775 28.6466 38.071 28.9433 37.5995C29.2399 37.1281 29.4381 36.6015 29.5258 36.0515C30.6604 36.169 31.7949 36.237 32.9261 36.2187C38.1682 36.1657 41.9792 34.8391 45.6677 33.5571C48.9156 32.4259 52.0111 31.3626 55.9414 31.24ZM56.9219 39.5312C56.263 39.5312 55.6311 39.793 55.1652 40.2589C54.6992 40.7248 54.4375 41.3567 54.4375 42.0156C54.4375 42.6745 54.6992 43.3064 55.1652 43.7723C55.6311 44.2382 56.263 44.5 56.9219 44.5C57.5808 44.5 58.2127 44.2382 58.6786 43.7723C59.1445 43.3064 59.4062 42.6745 59.4062 42.0156C59.4062 41.3567 59.1445 40.7248 58.6786 40.2589C58.2127 39.793 57.5808 39.5312 56.9219 39.5312ZM32.0781 44.5C31.4192 44.5 30.7873 44.7617 30.3214 45.2276C29.8555 45.6936 29.5938 46.3255 29.5938 46.9844C29.5938 47.6433 29.8555 48.2752 30.3214 48.7411C30.7873 49.207 31.4192 49.4687 32.0781 49.4687C32.737 49.4687 33.3689 49.207 33.8348 48.7411C34.3008 48.2752 34.5625 47.6433 34.5625 46.9844C34.5625 46.3255 34.3008 45.6936 33.8348 45.2276C33.3689 44.7617 32.737 44.5 32.0781 44.5Z" fill="white"/>
<path d="M37.8608 49V40.2727H41.1335C41.804 40.2727 42.3665 40.3892 42.821 40.6222C43.2784 40.8551 43.6236 41.1818 43.8565 41.6023C44.0923 42.0199 44.2102 42.5071 44.2102 43.0639C44.2102 43.6236 44.0909 44.1094 43.8523 44.5213C43.6165 44.9304 43.2685 45.2472 42.8082 45.4716C42.348 45.6932 41.7827 45.804 41.1122 45.804H38.7812V44.4915H40.8991C41.2912 44.4915 41.6122 44.4375 41.8622 44.3295C42.1122 44.2187 42.2969 44.0582 42.4162 43.848C42.5384 43.6349 42.5994 43.3736 42.5994 43.0639C42.5994 42.7543 42.5384 42.4901 42.4162 42.2713C42.294 42.0497 42.108 41.8821 41.858 41.7685C41.608 41.652 41.2855 41.5938 40.8906 41.5938H39.4418V49H37.8608ZM42.3693 45.0455L44.5298 49H42.7656L40.6435 45.0455H42.3693ZM45.5973 51.4545V42.4545H47.1143V43.5369H47.2038C47.2834 43.3778 47.3956 43.2088 47.5405 43.0298C47.6854 42.848 47.8814 42.6932 48.1286 42.5653C48.3757 42.4347 48.6911 42.3693 49.0746 42.3693C49.5803 42.3693 50.0362 42.4986 50.4425 42.7571C50.8516 43.0128 51.1754 43.392 51.4141 43.8949C51.6555 44.3949 51.7763 45.0085 51.7763 45.7358C51.7763 46.4545 51.6584 47.0653 51.4226 47.5682C51.1868 48.071 50.8658 48.4545 50.4595 48.7188C50.0533 48.983 49.593 49.1151 49.0788 49.1151C48.7038 49.1151 48.3928 49.0526 48.1456 48.9276C47.8984 48.8026 47.6996 48.652 47.549 48.4759C47.4013 48.2969 47.2862 48.1278 47.2038 47.9688H47.1399V51.4545H45.5973ZM47.1101 45.7273C47.1101 46.1506 47.1697 46.5213 47.2891 46.8395C47.4112 47.1577 47.5859 47.4062 47.8132 47.5852C48.0433 47.7614 48.3217 47.8494 48.6484 47.8494C48.9893 47.8494 49.2749 47.7585 49.505 47.5767C49.7351 47.392 49.9084 47.1406 50.0249 46.8224C50.1442 46.5014 50.2038 46.1364 50.2038 45.7273C50.2038 45.321 50.1456 44.9602 50.0291 44.6449C49.9126 44.3295 49.7393 44.0824 49.5092 43.9034C49.2791 43.7244 48.9922 43.6349 48.6484 43.6349C48.3189 43.6349 48.0391 43.7216 47.8089 43.8949C47.5788 44.0682 47.4041 44.3111 47.2848 44.6236C47.1683 44.9361 47.1101 45.304 47.1101 45.7273Z" fill="white"/>
</svg>
