<svg width="88" height="88" viewBox="0 0 88 88" fill="none" xmlns="http://www.w3.org/2000/svg">
<rect width="88" height="88" rx="16" fill="#0C6EFD"/>
<path d="M59.5859 26.1875H28.4141C27.3008 26.1875 26.1875 27.3008 26.1875 28.4141V53.4632C26.1875 54.5765 27.3008 55.6897 28.4141 55.6897H39.5469V57.9163C39.5469 59.4624 37.5412 60.1429 35.0938 60.1429V61.8125H52.9062V60.1423C50.4582 60.1423 48.4531 59.4618 48.4531 57.9157V55.6892H59.5859C60.6992 55.6892 61.8125 54.5759 61.8125 53.4626V28.4141C61.8125 27.3008 60.6992 26.1875 59.5859 26.1875ZM60.625 53.4632C60.625 53.9198 60.0419 54.5022 59.5859 54.5022H28.4141C27.9575 54.5022 27.375 53.9198 27.375 53.4632V51.2366H60.625V53.4632Z" fill="white"/>
<path d="M44.0001 54.0201C44.3076 54.0201 44.557 53.7708 44.557 53.4632C44.557 53.1556 44.3076 52.9062 44.0001 52.9062C43.6925 52.9062 43.4431 53.1556 43.4431 53.4632C43.4431 53.7708 43.6925 54.0201 44.0001 54.0201Z" fill="white"/>
</svg>
